<svg xmlns="http://www.w3.org/2000/svg" xmlns:xlink="http://www.w3.org/1999/xlink" width="1920" zoomAndPan="magnify" viewBox="0 0 1440 809.999993" height="1080" preserveAspectRatio="xMidYMid meet" version="1.0"><defs><clipPath id="34de37e187"><path d="M 0 0 L 551 0 L 551 810 L 0 810 Z M 0 0 " clip-rule="nonzero"/></clipPath><clipPath id="9674f710dc"><path d="M -1.828125 -147.414062 L -486.878906 -147.414062 C -791.996094 -147.414062 -1039.304688 94.191406 -1039.304688 392.226562 C -1039.304688 607.984375 -909.652344 794.089844 -722.339844 880.4375 L -722.339844 1243.785156 L -347.140625 931.847656 L -1.828125 931.847656 C 303.3125 931.847656 550.640625 690.242188 550.640625 392.207031 C 550.660156 94.191406 303.3125 -147.414062 -1.828125 -147.414062 Z M -1.828125 -147.414062 " clip-rule="nonzero"/></clipPath></defs><rect x="-144" width="1728" fill="#ffffff" y="-80.999999" height="971.999992" fill-opacity="1"/><rect x="-144" width="1728" fill="#cea0a4" y="-80.999999" height="971.999992" fill-opacity="1"/><g clip-path="url(#34de37e187)"><g clip-path="url(#9674f710dc)"><path fill="#2b4447" d="M -1039.304688 -147.414062 L 552.96875 -147.414062 L 552.96875 1243.785156 L -1039.304688 1243.785156 Z M -1039.304688 -147.414062 " fill-opacity="1" fill-rule="nonzero"/></g></g></svg>