<svg xmlns="http://www.w3.org/2000/svg" xmlns:xlink="http://www.w3.org/1999/xlink" width="1920" zoomAndPan="magnify" viewBox="0 0 1440 809.999993" height="1080" preserveAspectRatio="xMidYMid meet" version="1.0"><defs><clipPath id="05f237f98c"><path d="M 0 0 L 693 0 L 693 810 L 0 810 Z M 0 0 " clip-rule="nonzero"/></clipPath><clipPath id="6a3c712a14"><path d="M 139.59375 -158.085938 L -345.457031 -158.085938 C -650.578125 -158.085938 -897.882812 83.519531 -897.882812 381.550781 C -897.882812 597.308594 -768.234375 783.417969 -580.917969 869.765625 L -580.917969 1233.113281 L -205.71875 921.175781 L 139.59375 921.175781 C 444.730469 921.175781 692.058594 679.566406 692.058594 381.53125 C 692.082031 83.519531 444.730469 -158.085938 139.59375 -158.085938 Z M 139.59375 -158.085938 " clip-rule="nonzero"/></clipPath></defs><rect x="-144" width="1728" fill="#ffffff" y="-80.999999" height="971.999992" fill-opacity="1"/><rect x="-144" width="1728" fill="#cea0a4" y="-80.999999" height="971.999992" fill-opacity="1"/><g clip-path="url(#05f237f98c)"><g clip-path="url(#6a3c712a14)"><path fill="#2b4447" d="M -897.882812 -158.085938 L 694.390625 -158.085938 L 694.390625 1233.113281 L -897.882812 1233.113281 Z M -897.882812 -158.085938 " fill-opacity="1" fill-rule="nonzero"/></g></g></svg>