<svg xmlns="http://www.w3.org/2000/svg" xmlns:xlink="http://www.w3.org/1999/xlink" width="1920" zoomAndPan="magnify" viewBox="0 0 1440 809.999993" height="1080" preserveAspectRatio="xMidYMid meet" version="1.0"><defs><clipPath id="0330309b24"><path d="M 0 0 L 491 0 L 491 810 L 0 810 Z M 0 0 " clip-rule="nonzero"/></clipPath><clipPath id="bec6df0794"><path d="M -62.117188 -131.402344 L -547.167969 -131.402344 C -852.285156 -131.402344 -1099.59375 110.203125 -1099.59375 408.234375 C -1099.59375 623.992188 -969.941406 810.101562 -782.628906 896.449219 L -782.628906 1259.796875 L -407.429688 947.855469 L -62.117188 947.855469 C 243.023438 947.855469 490.351562 706.25 490.351562 408.214844 C 490.371094 110.203125 243.023438 -131.402344 -62.117188 -131.402344 Z M -62.117188 -131.402344 " clip-rule="nonzero"/></clipPath></defs><rect x="-144" width="1728" fill="#ffffff" y="-80.999999" height="971.999992" fill-opacity="1"/><rect x="-144" width="1728" fill="#4c7377" y="-80.999999" height="971.999992" fill-opacity="1"/><g clip-path="url(#0330309b24)"><g clip-path="url(#bec6df0794)"><path fill="#2b4447" d="M -1099.59375 -131.402344 L 492.679688 -131.402344 L 492.679688 1259.796875 L -1099.59375 1259.796875 Z M -1099.59375 -131.402344 " fill-opacity="1" fill-rule="nonzero"/></g></g></svg>